<?xml version="1.0" encoding="UTF-8" standalone="no"?>
<svg width="1440px" height="224px" viewBox="0 0 1440 224" version="1.1" xmlns="http://www.w3.org/2000/svg" xmlns:xlink="http://www.w3.org/1999/xlink" xmlns:sketch="http://www.bohemiancoding.com/sketch/ns">
    <!-- Generator: Sketch 3.0.4 (8053) - http://www.bohemiancoding.com/sketch -->
    <title>Moon</title>
    <desc>Created with Sketch.</desc>
    <defs></defs>
    <g id="Welcome" stroke="none" stroke-width="1" fill="none" fill-rule="evenodd" sketch:type="MSPage">
        <g id="Moon" sketch:type="MSArtboardGroup" transform="translate(0.000000, -800.000000)">
            <g sketch:type="MSLayerGroup" transform="translate(0.000000, 797.000000)">
                <g fill="#EEEFF7" sketch:type="MSShapeGroup">
                    <path d="M108,35 C108,35 149.035386,29.1983259 162.086781,25.9375845 C175.138175,22.6768432 186.308369,15.435552 186.308369,15.435552 C186.308369,15.435552 209.825802,14 220.951644,14 C232.077487,14 253.063425,15.435552 253.063425,15.435552 C253.063425,15.435552 256.19343,18.8785911 262.037241,21.3770138 C267.881053,23.8754366 310,25.9375846 310,25.9375846 L108,35 Z M783.493387,16.9896441 C783.493387,16.9896441 750.033916,13.4586184 739.352066,11.1903801 C728.670217,8.92214176 719.402291,3.3802141 719.402291,3.3802141 C719.402291,3.3802141 700.280003,2.88515719 691.252644,3.20039954 C682.225284,3.5156419 665.238132,5.27166821 665.238132,5.27166821 C665.238132,5.27166821 662.795761,8.14587871 658.124755,10.3327593 C653.45375,12.51964 619.33726,15.3813895 619.33726,15.3813895 L783.493387,16.9896441 Z M1115.54791,33.7016651 C1115.54791,33.7016651 1168.72514,31.8996707 1185.775,29.7637449 C1192.91828,28.8688688 1210.56155,30.3127357 1221.77544,29.277268 C1228.39808,28.6657466 1232.85878,24.0581705 1237.59699,22.2825829 C1243.98545,19.8885809 1249.59699,20.2825832 1249.59699,20.2825832 L1281.88589,27.289085 C1281.88589,27.289085 1285.92498,35.0454595 1301.51632,38.2234032 C1317.10765,41.401347 1375.43389,46.3567475 1375.43389,46.3567475 L1115.54791,33.7016651 Z" id="BG-Crater-3"></path>
                    <path d="M720,12 C480,12 0,39 0,39 L0,227 L1440,227 L1440,39 C1440,39 960,12 720,12 Z" id="Rectangle-1"></path>
                </g>
                <g id="Crater-1" transform="translate(247.000000, 73.000000)" sketch:type="MSShapeGroup">
                    <path d="M40.9135459,10.1135624 C40.9135459,10.1135624 35.3666914,21.3333593 31.2949674,25.758056 C27.2232434,30.1827526 16.4832017,36.6617425 16.4832017,36.6617425 L14,49 C14,49 17.8758587,62.9254516 33.6441405,66.7218826 C49.4124224,70.5183136 93.609691,69.9728185 93.609691,69.9728185 C93.609691,69.9728185 136.82755,67.3315037 153.059269,62.7844873 C169.290987,58.2374709 178,47.1942329 178,47.1942329 C178,47.1942329 167.300177,38.5643367 159.342514,35.5023889 C151.384852,32.4404412 143.254024,24.3190337 143.254024,24.3190337 C143.254024,24.3190337 141.903044,18.0273371 141.015794,15.6408315 C140.128544,13.2543259 137.930523,10 137.930523,10 L40.9135459,10.1135624 Z" id="Crater-base" fill="#CAC9CF"></path>
                    <path d="M40.8691882,10 C40.8691882,10 35.3277486,21.2410729 31.2599994,25.6741601 C27.1922503,30.1072474 16.4626932,36.5985233 16.4626932,36.5985233 C16.4626932,36.5985233 7.76098784,39.5997539 5.01720563,42 C2.27342343,44.4002461 -1.11404344e-16,51 -1.11404344e-16,51 C-1.11404344e-16,51 17.8539907,62.9120362 33.6068793,66.7156663 C49.3597679,70.5192965 91.5212701,69.972767 91.5212701,69.972767 C91.5212701,69.972767 106.00369,66.430704 111.416908,59.0845659 C115.853771,53.0634145 93.5138933,24.2324095 93.5138933,24.2324095 L40.8691882,10 Z" id="Crater-base-light" fill="#E7E8F0"></path>
                    <path d="M90,24 C117.061953,24 139,18.627417 139,12 C139,5.372583 117.061953,0 90,0 C62.9380473,0 41,5.372583 41,12 C41,18.627417 62.9380473,24 90,24 Z" id="Crater-top-fill" fill="#CACACF"></path>
                    <path d="M90,22 C117.061953,22 130,19.5773287 130,16.2636202 C130,12.9499117 117.061953,10.0000001 90,10.0000001 C62.9380473,10.0000001 49,11.6862916 49,15.0000001 C49,18.3137086 62.9380473,22 90,22 Z" id="Crater-top-fill-2" fill="#96969E"></path>
                    <path d="M90,24 C117.061953,24 139,18.627417 139,12 C139,5.372583 117.061953,0 90,0 C62.9380473,0 41,5.372583 41,12 C41,18.627417 62.9380473,24 90,24 Z" id="Crater-top" stroke="#E7E8F0" stroke-width="3"></path>
                </g>
                <g id="Crater-2" transform="translate(806.000000, 108.000000)" sketch:type="MSShapeGroup">
                    <path d="M53.467693,12.1400603 C53.467693,12.1400603 44.5090456,25.9778098 37.9328608,31.4349357 C31.3566761,36.8920616 14.0105845,44.8828158 14.0105845,44.8828158 L10,60.1 C10,60.1 16.2598454,77.2747236 41.7269776,81.9569885 C67.1941099,86.6392534 138.576503,85.9664762 138.576503,85.9664762 C138.576503,85.9664762 208.377065,82.7088546 234.592687,77.1008677 C260.808309,71.4928808 257.904493,62.9108538 257.904493,62.9108538 C257.904493,62.9108538 257.59298,47.2293486 244.74067,43.4529463 C231.888359,39.6765441 218.756373,29.6601416 218.756373,29.6601416 C218.756373,29.6601416 216.574424,21.9003824 215.141439,18.9570255 C213.708453,16.0136685 210.158461,12 210.158461,12 L53.467693,12.1400603 Z" id="Crater-base" fill="#CAC9CF"></path>
                    <path d="M52.7575036,12 C52.7575036,12 43.7924296,25.8639899 37.2115273,31.3314642 C30.6306251,36.7989384 13.2720901,44.8048454 13.2720901,44.8048454 C13.2720901,44.8048454 5.07597792,51.9195425 0.637021196,54.8798461 C-3.80193553,57.8401496 15.5229645,77.2581779 41.0083659,81.9493218 C66.4937673,86.6404657 134.703658,85.9664126 134.703658,85.9664126 C134.703658,85.9664126 158.133665,81.5978682 166.891299,72.5376313 C170.334548,68.9754076 165.344145,49.3004821 157.622125,39.8217054 C149.246224,29.5402916 137.927371,29.5533051 137.927371,29.5533051 L52.7575036,12 Z" id="Crater-base-light" fill="#E7E8F0"></path>
                    <path d="M132.5,29 C176.406638,29 212,22.5081289 212,14.5 C212,6.49187113 176.406638,0 132.5,0 C88.5933624,0 53,6.49187113 53,14.5 C53,22.5081289 88.5933624,29 132.5,29 Z" id="Crater-top-fill" fill="#CACACF"></path>
                    <path d="M132.308642,27 C176.075504,27 197,23.9716609 197,19.8295253 C197,15.6873897 176.075504,12.0000001 132.308642,12.0000001 C88.5417801,12.0000001 66,14.1078645 66,18.2500001 C66,22.3921358 88.5417801,27 132.308642,27 Z" id="Crater-top-fill-2" fill="#96969E"></path>
                    <path d="M132.5,29 C176.406638,29 212,22.5081289 212,14.5 C212,6.49187113 176.406638,0 132.5,0 C88.5933624,0 53,6.49187113 53,14.5 C53,22.5081289 88.5933624,29 132.5,29 Z" id="Crater-top" stroke="#E7E8F0" stroke-width="3"></path>
                </g>
                <g id="Crater-3" transform="translate(1131.000000, 46.000000)" sketch:type="MSShapeGroup">
                    <path d="M17.484871,6.06245933 C17.484871,6.06245933 14.5092147,12.2333476 12.3249044,14.6669308 C10.1405941,17.100514 4.37900925,20.6639584 4.37900925,20.6639584 L2,28 C2,28 5.12611171,35.1089984 13.5851379,37.1970354 C22.0441641,39.2850725 45.7541572,38.9850502 45.7541572,38.9850502 C45.7541572,38.9850502 68.938738,37.532327 77.6463785,35.031468 C86.354019,32.530609 89,28 89,28 C89,28 85.2860325,21.7103852 81.017078,20.0263139 C76.7481236,18.3422427 72.3862734,13.8754686 72.3862734,13.8754686 C72.3862734,13.8754686 71.6615289,10.4150354 71.1855561,9.10245731 C70.7095834,7.78987922 69.5304369,6 69.5304369,6 L17.484871,6.06245933 Z" id="Crater-base" fill="#CAC9CF"></path>
                    <path d="M17.694738,6 C17.694738,6 14.6913078,12.1825901 12.4866098,14.6207881 C10.2819118,17.058986 4.4665501,20.6291878 4.4665501,20.6291878 L-3.55271368e-15,30 C-3.55271368e-15,30 5.22062578,35.1016199 13.758606,37.1936165 C22.2965862,39.2856131 45.1478918,38.9850218 45.1478918,38.9850218 C45.1478918,38.9850218 52.9972849,37.0368872 55.9312198,32.9965112 C58.3359753,29.684878 55.9312197,24.3886314 55.9312198,22.5000001 C55.93122,18.307134 46.2278827,13.8278252 46.2278827,13.8278252 L17.694738,6 Z" id="Crater-base-light" fill="#E7E8F0"></path>
                    <path d="M43,13 C57.3594035,13 69,10.0898509 69,6.5 C69,2.91014913 57.3594035,0 43,0 C28.6405965,0 17,2.91014913 17,6.5 C17,10.0898509 28.6405965,13 43,13 Z" id="Crater-top" stroke="#E7E8F0" stroke-width="3" fill="#CACACF"></path>
                </g>
            </g>
        </g>
    </g>
</svg>